<svg xmlns="http://www.w3.org/2000/svg" viewBox="0 0 128 128" width="128" height="128">
  <!-- 猫猫插件图标：透明背景，粗轮廓，小尺寸可辨认 -->
  <!-- 耳朵 -->
  <path d="M30 54 L20 14 L64 44 Z" fill="#F4A261" stroke="#5C3A21" stroke-width="5" stroke-linejoin="round"/>
  <path d="M98 54 L108 14 L64 44 Z" fill="#F4A261" stroke="#5C3A21" stroke-width="5" stroke-linejoin="round"/>
  <path d="M36 48 L30 26 L54 44 Z" fill="#FFB5A7"/>
  <path d="M92 48 L98 26 L74 44 Z" fill="#FFB5A7"/>
  <!-- 脸 -->
  <circle cx="64" cy="72" r="44" fill="#F4A261" stroke="#5C3A21" stroke-width="5"/>
  <!-- 眼睛 -->
  <ellipse cx="48" cy="66" rx="7" ry="9" fill="#3D2B1F"/>
  <ellipse cx="80" cy="66" rx="7" ry="9" fill="#3D2B1F"/>
  <circle cx="50" cy="62" r="2.5" fill="#fff"/>
  <circle cx="82" cy="62" r="2.5" fill="#fff"/>
  <!-- 鼻子 -->
  <path d="M59 80 L69 80 L64 88 Z" fill="#E76F51"/>
  <!-- 嘴 -->
  <path d="M64 88 q-7 5 -12 1 M64 88 q7 5 12 1" fill="none" stroke="#5C3A21" stroke-width="4" stroke-linecap="round"/>
  <!-- 胡须 -->
  <g stroke="#5C3A21" stroke-width="3" stroke-linecap="round">
    <line x1="22" y1="72" x2="42" y2="76"/>
    <line x1="22" y1="84" x2="42" y2="84"/>
    <line x1="106" y1="72" x2="86" y2="76"/>
    <line x1="106" y1="84" x2="86" y2="84"/>
  </g>
  <!-- 腮红 -->
  <circle cx="40" cy="82" r="6" fill="#FF8C69" opacity="0.55"/>
  <circle cx="88" cy="82" r="6" fill="#FF8C69" opacity="0.55"/>
</svg>
