<svg xmlns="http://www.w3.org/2000/svg" viewBox="0 0 128 128" width="128" height="128">
  <!-- 圆角背景 -->
  <rect width="128" height="128" rx="28" fill="#2f3a4a"/>
  <!-- 猫脸 -->
  <ellipse cx="64" cy="66" rx="36" ry="30" fill="#f59e0b"/>
  <!-- 左耳 -->
  <polygon points="32,48 44,18 56,40" fill="#f59e0b"/>
  <polygon points="38,44 44,26 51,40" fill="#fbbf24"/>
  <!-- 右耳 -->
  <polygon points="96,48 84,18 72,40" fill="#f59e0b"/>
  <polygon points="90,44 84,26 77,40" fill="#fbbf24"/>
  <!-- 眼睛 -->
  <circle cx="50" cy="62" r="8" fill="#1a1a2e"/>
  <circle cx="78" cy="62" r="8" fill="#1a1a2e"/>
  <!-- 眼睛高光 -->
  <circle cx="53" cy="59" r="3" fill="#fff"/>
  <circle cx="81" cy="59" r="3" fill="#fff"/>
  <!-- 鼻子 -->
  <polygon points="64,72 60,77 68,77" fill="#e87d7d"/>
  <!-- 嘴巴 -->
  <path d="M56 80 Q64 86 72 80" stroke="#1a1a2e" stroke-width="2" fill="none"/>
  <line x1="64" y1="77" x2="64" y2="83" stroke="#1a1a2e" stroke-width="2"/>
</svg>